<svg width="100" height="100" viewBox="0 0 100 100" fill="none" xmlns="http://www.w3.org/2000/svg">
<circle cx="50" cy="50" r="50" fill="#222222"/>
<path d="M27.7635 30.4545H32.6783L34.6953 38.6932H34.8658L39.6101 30.4545H44.5249L42.1101 45H38.2464L39.6385 36.5909H39.5249L34.9226 44.8864H32.593L30.7464 36.5341H30.6328L29.2124 45H25.3487L27.7635 30.4545ZM45.7997 30.4545H50.2031L52.0497 36.3636H52.1918L55.9986 30.4545H60.402L53.4134 40.4261L52.6463 45H48.7259L49.4929 40.4261L45.7997 30.4545ZM61.5685 45H57.3072L64.5231 30.4545H69.9208L72.3072 45H68.0458L66.6254 34.4602H66.5117L61.5685 45ZM61.739 39.2614H69.7504L69.239 42.2159H61.2276L61.739 39.2614ZM28.4151 69L30.8299 54.4545H34.7788L32.9038 65.8182H38.7844L38.2447 69H28.4151ZM54.5302 61.983C54.265 63.5644 53.7395 64.8902 52.9535 65.9602C52.1675 67.0303 51.2134 67.8376 50.0913 68.3821C48.9691 68.9266 47.7688 69.1989 46.4904 69.1989C45.1268 69.1989 43.9431 68.9029 42.9393 68.3111C41.9355 67.7192 41.204 66.8527 40.7447 65.7116C40.2854 64.5705 40.1931 63.1761 40.4677 61.5284C40.7234 59.947 41.2442 58.6165 42.0302 57.5369C42.8162 56.4574 43.775 55.6406 44.9066 55.0866C46.0382 54.5327 47.248 54.2557 48.5359 54.2557C49.89 54.2557 51.0666 54.554 52.0657 55.1506C53.0695 55.7472 53.7987 56.6207 54.2532 57.7713C54.7125 58.9219 54.8048 60.3258 54.5302 61.983ZM50.5529 61.5284C50.6855 60.6951 50.695 59.9943 50.5813 59.4261C50.4677 58.8532 50.2286 58.4223 49.864 58.1335C49.4994 57.84 49.0094 57.6932 48.3938 57.6932C47.6931 57.6932 47.0728 57.8636 46.533 58.2045C45.9933 58.5455 45.5458 59.0355 45.1907 59.6747C44.8356 60.3139 44.587 61.0833 44.445 61.983C44.2934 62.8258 44.2792 63.5265 44.4023 64.0852C44.5302 64.6439 44.7811 65.063 45.1552 65.3423C45.534 65.6217 46.0264 65.7614 46.6325 65.7614C47.3237 65.7614 47.9345 65.5956 48.4648 65.2642C48.9999 64.9328 49.4426 64.4522 49.793 63.8224C50.1481 63.1927 50.4014 62.428 50.5529 61.5284ZM66.2578 59.2557C66.2389 59.0047 66.1868 58.7846 66.1016 58.5952C66.0163 58.401 65.8956 58.2377 65.7393 58.1051C65.5831 57.9678 65.389 57.866 65.157 57.7997C64.9297 57.7287 64.6622 57.6932 64.3544 57.6932C63.6915 57.6932 63.0878 57.8518 62.5433 58.169C61.9988 58.4863 61.5419 58.9432 61.1726 59.5398C60.808 60.1364 60.5571 60.8561 60.4197 61.6989C60.2777 62.5511 60.2659 63.2803 60.3842 63.8864C60.5026 64.4924 60.7583 64.9564 61.1513 65.2784C61.549 65.6004 62.0864 65.7614 62.7635 65.7614C63.3696 65.7614 63.8928 65.6738 64.3331 65.4986C64.7734 65.3234 65.1262 65.0748 65.3913 64.7528C65.6565 64.4309 65.8222 64.0521 65.8885 63.6165L66.5703 63.6875H63.2464L63.701 60.875H70.1499L69.8232 62.892C69.6054 64.2178 69.1366 65.3518 68.4169 66.294C67.7019 67.2315 66.8118 67.9512 65.7464 68.4531C64.6811 68.9503 63.5116 69.1989 62.2379 69.1989C60.8269 69.1989 59.6361 68.8982 58.6655 68.2969C57.6948 67.6955 57.0012 66.8385 56.5845 65.7259C56.1726 64.6132 56.0921 63.2898 56.343 61.7557C56.5419 60.553 56.9018 59.4877 57.4226 58.5597C57.9482 57.6316 58.5897 56.848 59.3473 56.2088C60.1049 55.5649 60.9406 55.0795 61.8544 54.7528C62.7682 54.4214 63.7152 54.2557 64.6953 54.2557C65.5523 54.2557 66.3312 54.3788 67.032 54.625C67.7327 54.8665 68.3317 55.2121 68.8288 55.6619C69.326 56.107 69.6977 56.6349 69.9439 57.2457C70.1948 57.8565 70.2966 58.5265 70.2493 59.2557H66.2578Z" fill="#EEEEEE"/>
</svg>
